<?xml version="1.0" encoding="UTF-8"?>
<!DOCTYPE svg PUBLIC "-//W3C//DTD SVG 1.1//EN" "http://www.w3.org/Graphics/SVG/1.1/DTD/svg11.dtd">
<svg xmlns="http://www.w3.org/2000/svg" version="1.1" width="822px" height="493px" style="shape-rendering:geometricPrecision; text-rendering:geometricPrecision; image-rendering:optimizeQuality; fill-rule:evenodd; clip-rule:evenodd" xmlns:xlink="http://www.w3.org/1999/xlink">
<g><path style="opacity:1" fill="#fefefe" d="M -0.5,-0.5 C 273.5,-0.5 547.5,-0.5 821.5,-0.5C 821.5,163.833 821.5,328.167 821.5,492.5C 547.5,492.5 273.5,492.5 -0.5,492.5C -0.5,328.167 -0.5,163.833 -0.5,-0.5 Z"/></g>
<g><path style="opacity:1" fill="#1b1b1b" d="M 492.5,5.5 C 493.818,8.25751 494.485,11.4242 494.5,15C 494.167,18.1667 493.833,21.3333 493.5,24.5C 492.504,18.2015 492.17,11.8682 492.5,5.5 Z"/></g>
<g><path style="opacity:1" fill="#202020" d="M 388.5,6.5 C 390.337,6.63945 390.67,7.30612 389.5,8.5C 388.702,8.04311 388.369,7.37644 388.5,6.5 Z"/></g>
<g><path style="opacity:1" fill="#161616" d="M 441.5,6.5 C 444.93,6.10653 448.096,6.77319 451,8.5C 452.041,11.6363 451.207,14.1363 448.5,16C 449.916,18.8349 451.583,21.5015 453.5,24C 452.365,24.7494 451.365,24.5827 450.5,23.5C 449.621,18.9453 446.954,16.612 442.5,16.5C 442.664,19.1873 442.497,21.854 442,24.5C 441.501,18.5092 441.334,12.5092 441.5,6.5 Z"/></g>
<g><path style="opacity:1" fill="#131313" d="M 358.5,7.5 C 359.434,8.56764 359.768,9.90097 359.5,11.5C 363.5,12.1667 363.5,12.8333 359.5,13.5C 359.5,16.5 359.5,19.5 359.5,22.5C 360.675,22.281 361.675,22.6143 362.5,23.5C 360.994,24.7472 359.494,24.7472 358,23.5C 357.985,19.5849 357.152,15.9182 355.5,12.5C 356.994,11.0953 357.994,9.42866 358.5,7.5 Z"/></g>
<g><path style="opacity:1" fill="#e4e4e4" d="M 442.5,8.5 C 444.527,8.33788 446.527,8.50454 448.5,9C 449.833,10.6667 449.833,12.3333 448.5,14C 446.527,14.4955 444.527,14.6621 442.5,14.5C 442.5,12.5 442.5,10.5 442.5,8.5 Z"/></g>
<g><path style="opacity:1" fill="#131313" d="M 500.5,7.5 C 501.434,8.56764 501.768,9.90097 501.5,11.5C 505.5,12.1667 505.5,12.8333 501.5,13.5C 501.5,16.5 501.5,19.5 501.5,22.5C 502.675,22.281 503.675,22.6143 504.5,23.5C 502.994,24.7472 501.494,24.7472 500,23.5C 499.985,19.5849 499.152,15.9182 497.5,12.5C 498.994,11.0953 499.994,9.42866 500.5,7.5 Z"/></g>
<g><path style="opacity:1" fill="#141414" d="M 380.5,11.5 C 382.458,11.908 384.458,12.2413 386.5,12.5C 384.291,13.063 382.791,14.3964 382,16.5C 381.667,19.1667 381.333,21.8333 381,24.5C 380.501,20.1794 380.334,15.8461 380.5,11.5 Z"/></g>
<g><path style="opacity:1" fill="#1b1b1b" d="M 388.5,11.5 C 389.8,13.223 390.467,15.3897 390.5,18C 390.167,20.1667 389.833,22.3333 389.5,24.5C 388.508,20.2172 388.174,15.8839 388.5,11.5 Z"/></g>
<g><path style="opacity:1" fill="#191919" d="M 478.5,11.5 C 480.25,14.3554 481.083,17.6887 481,21.5C 482.667,22.8333 484.333,22.8333 486,21.5C 486.176,18.1182 486.676,14.7848 487.5,11.5C 488.833,15.8333 488.833,20.1667 487.5,24.5C 485.89,23.4478 484.223,23.4478 482.5,24.5C 480.971,24.4712 479.804,23.8045 479,22.5C 478.501,18.8484 478.335,15.1817 478.5,11.5 Z"/></g>
<g><path style="opacity:1" fill="#1e1e1e" d="M 334.5,11.5 C 339.682,11.0178 342.349,13.3511 342.5,18.5C 339.428,18.1826 336.428,18.5159 333.5,19.5C 333.833,20.1667 334.167,20.8333 334.5,21.5C 337.033,22.2781 339.366,22.6115 341.5,22.5C 335.745,26.1786 332.411,24.512 331.5,17.5C 331.628,15.0452 332.628,13.0452 334.5,11.5 Z"/></g>
<g><path style="opacity:1" fill="#e9e9e9" d="M 334.5,13.5 C 336.977,13.0508 338.977,13.7175 340.5,15.5C 338.167,16.8333 335.833,16.8333 333.5,15.5C 333.863,14.8165 334.196,14.1499 334.5,13.5 Z"/></g>
<g><path style="opacity:1" fill="#1d1d1d" d="M 427.5,5.5 C 428.818,8.25751 429.485,11.4242 429.5,15C 429.167,18.1667 428.833,21.3333 428.5,24.5C 425.933,24.2223 423.267,24.0556 420.5,24C 417.552,19.6591 417.885,15.6591 421.5,12C 423.441,11.2571 425.274,11.4238 427,12.5C 427.497,10.1902 427.663,7.85684 427.5,5.5 Z"/></g>
<g><path style="opacity:1" fill="#f5f5f5" d="M 421.5,13.5 C 423.467,13.2606 425.301,13.5939 427,14.5C 427.769,17.0991 427.602,19.5991 426.5,22C 424.559,22.7429 422.726,22.5762 421,21.5C 420.278,18.7395 420.445,16.0728 421.5,13.5 Z"/></g>
<g><path style="opacity:1" fill="#1b1b1b" d="M 348.5,11.5 C 355.136,12.0218 355.136,12.8551 348.5,14C 344.869,19.7315 346.535,22.7315 353.5,23C 346.836,25.352 344.003,22.852 345,15.5C 345.69,13.6498 346.856,12.3164 348.5,11.5 Z"/></g>
<g><path style="opacity:1" fill="#1c1c1c" d="M 367.5,11.5 C 376.369,11.5166 378.703,15.35 374.5,23C 368.461,26.1317 365.128,24.2983 364.5,17.5C 364.628,15.0452 365.628,13.0452 367.5,11.5 Z"/></g>
<g><path style="opacity:1" fill="#f6f6f6" d="M 368.5,13.5 C 370.467,13.2606 372.301,13.5939 374,14.5C 376.011,22.1699 373.678,24.1699 367,20.5C 366.167,17.829 366.667,15.4957 368.5,13.5 Z"/></g>
<g><path style="opacity:1" fill="#1f1f1f" d="M 393.5,11.5 C 396.85,11.335 400.183,11.5017 403.5,12C 400.92,15.1584 398.587,18.4918 396.5,22C 398.9,22.1858 401.234,22.6858 403.5,23.5C 400.167,24.8333 396.833,24.8333 393.5,23.5C 395.5,20.5 397.5,17.5 399.5,14.5C 397.025,14.0358 395.025,13.0358 393.5,11.5 Z"/></g>
<g><path style="opacity:1" fill="#1c1c1c" d="M 408.5,11.5 C 413.638,10.9701 416.305,13.3035 416.5,18.5C 413.5,18.5 410.5,18.5 407.5,18.5C 407.33,19.8221 407.663,20.9887 408.5,22C 410.5,22.3333 412.5,22.6667 414.5,23C 406.955,25.4591 404.122,22.6258 406,14.5C 407.045,13.6266 407.878,12.6266 408.5,11.5 Z"/></g>
<g><path style="opacity:1" fill="#ededed" d="M 408.5,13.5 C 411.045,13.1505 413.045,13.9838 414.5,16C 412.098,16.8141 409.765,16.6474 407.5,15.5C 407.863,14.8165 408.196,14.1499 408.5,13.5 Z"/></g>
<g><path style="opacity:1" fill="#191919" d="M 469.5,11.5 C 476.167,12.1667 476.167,12.8333 469.5,13.5C 469.22,16.3882 470.553,17.8882 473.5,18C 476.167,20 476.167,22 473.5,24C 471.421,24.8077 469.421,24.641 467.5,23.5C 469.396,22.5344 471.396,22.2011 473.5,22.5C 473.719,21.325 473.386,20.325 472.5,19.5C 467.474,18.0817 466.474,15.415 469.5,11.5 Z"/></g>
<g><path style="opacity:1" fill="#1f1f1f" d="M 457.5,11.5 C 462.811,10.9724 465.145,13.3057 464.5,18.5C 461.833,18.5 459.167,18.5 456.5,18.5C 456.33,19.8221 456.663,20.9887 457.5,22C 459.5,22.3333 461.5,22.6667 463.5,23C 455.57,25.7393 452.737,22.906 455,14.5C 455.698,13.3094 456.531,12.3094 457.5,11.5 Z"/></g>
<g><path style="opacity:1" fill="#f2f2f2" d="M 457.5,13.5 C 459.665,13.1159 461.332,13.7826 462.5,15.5C 460.235,16.6474 457.902,16.8141 455.5,16C 456.381,15.2917 457.047,14.4584 457.5,13.5 Z"/></g>
<g><path style="opacity:1" fill="#161616" d="M 316.5,7.5 C 317.189,6.22641 318.023,6.22641 319,7.5C 320.667,12.1667 322.333,16.8333 324,21.5C 325.667,16.8333 327.333,12.1667 329,7.5C 329.718,6.54943 330.551,6.38277 331.5,7C 328.803,12.5906 326.803,18.4239 325.5,24.5C 324.5,24.5 323.5,24.5 322.5,24.5C 321.269,18.4678 319.269,12.8012 316.5,7.5 Z"/></g>
<g><path style="opacity:1" fill="#0c2f49" d="M 404.5,51.5 C 438.783,50.069 467.616,61.7356 491,86.5C 514.529,116.339 520.362,149.339 508.5,185.5C 551.669,185.816 583.835,204.483 605,241.5C 625.773,293.926 613.273,336.426 567.5,369C 510.908,394.729 464.408,382.562 428,332.5C 424.285,325.737 421.118,318.737 418.5,311.5C 415.473,310.143 412.64,310.476 410,312.5C 398.389,348.116 374.555,370.616 338.5,380C 316.393,383.365 294.726,381.699 273.5,375C 235.614,356.109 216.28,325.276 215.5,282.5C 217.735,246.847 233.735,219.347 263.5,200C 281.672,190.624 301.005,185.624 321.5,185C 311.364,155.97 313.864,128.137 329,101.5C 346.477,73.1809 371.644,56.5142 404.5,51.5 Z"/></g>
<g><path style="opacity:1" fill="#20b2f7" d="M 396.5,73.5 C 436.283,69.3073 466.116,84.3073 486,118.5C 500.505,155.311 492.672,186.478 462.5,212C 455.005,216.498 447.171,220.331 439,223.5C 434.297,218.101 430.297,212.101 427,205.5C 418.938,196.413 410.938,196.413 403,205.5C 400.38,211.914 396.88,217.747 392.5,223C 358.061,211.533 339.727,187.533 337.5,151C 339.404,119.428 354.071,95.7616 381.5,80C 386.59,77.7822 391.59,75.6156 396.5,73.5 Z"/></g>
<g><path style="opacity:1" fill="#0c304a" d="M 441.5,107.5 C 463.996,106.821 471.829,117.154 465,138.5C 448.833,154.667 432.667,170.833 416.5,187C 409.14,190.277 401.806,190.277 394.5,187C 384.643,178.142 375.143,168.975 366,159.5C 358.97,142.893 364.136,132.56 381.5,128.5C 390.723,131.053 398.723,135.72 405.5,142.5C 416.886,130.113 428.886,118.447 441.5,107.5 Z"/></g>
<g><path style="opacity:0.999" fill="#f9fafb" d="M 443.5,117.5 C 453.922,115.76 458.755,120.093 458,130.5C 442.529,146.971 426.696,163.138 410.5,179C 406.833,181 403.167,181 399.5,179C 390.667,170.167 381.833,161.333 373,152.5C 372.105,139.424 377.605,135.924 389.5,142C 394.348,147.015 399.348,151.848 404.5,156.5C 405.7,155.469 407.034,154.635 408.5,154C 420.006,141.661 431.673,129.494 443.5,117.5 Z"/></g>
<g><path style="opacity:1" fill="#fbfcfc" d="M 413.5,207.5 C 417.362,208.524 420.195,210.857 422,214.5C 430.791,232.584 439.958,250.417 449.5,268C 449.355,268.772 449.022,269.439 448.5,270C 442.145,270.771 436.478,269.105 431.5,265C 429.527,264.505 427.527,264.338 425.5,264.5C 425.666,274.172 425.5,283.839 425,293.5C 421.787,300.482 416.62,302.315 409.5,299C 407.951,297.786 406.785,296.286 406,294.5C 404.128,284.925 403.295,275.258 403.5,265.5C 396.805,266.287 390.472,268.287 384.5,271.5C 382.954,270.788 381.954,269.622 381.5,268C 391.026,247.11 401.692,226.943 413.5,207.5 Z"/></g>
<g><path style="opacity:1" fill="#20b3f7" d="M 300.5,208.5 C 334.777,206.469 360.777,219.969 378.5,249C 375.729,255.411 373.729,262.078 372.5,269C 373.038,276.205 376.871,280.038 384,280.5C 386.792,279.784 389.626,279.451 392.5,279.5C 392.545,319.606 373.545,345.772 335.5,358C 290.646,367.325 259.146,351.159 241,309.5C 230.53,257.752 250.363,224.085 300.5,208.5 Z"/></g>
<g><path style="opacity:1" fill="#f95d58" d="M 508.5,208.5 C 519.724,207.835 530.724,209.001 541.5,212C 547.675,215.588 554.009,218.922 560.5,222C 591.226,245.855 600.392,276.355 588,313.5C 571.414,347.218 544.248,363.051 506.5,361C 482.828,357.09 464.328,345.257 451,325.5C 447.634,319.48 444.3,313.48 441,307.5C 438.57,298.322 437.403,288.989 437.5,279.5C 452.07,283.094 458.903,277.427 458,262.5C 455.417,258.913 453.25,255.08 451.5,251C 452.144,247.695 453.644,244.862 456,242.5C 467.107,230.049 479.941,219.882 494.5,212C 499.224,210.506 503.891,209.339 508.5,208.5 Z"/></g>
<g><path style="opacity:1" fill="#123049" d="M 482.5,239.5 C 487.742,239.023 492.742,239.856 497.5,242C 503.758,249.097 510.758,255.264 518.5,260.5C 525.683,253.483 533.016,246.65 540.5,240C 555.291,236.475 563.958,242.142 566.5,257C 566.06,260.593 565.227,264.093 564,267.5C 558.486,274.344 552.986,281.178 547.5,288C 551.91,294.416 557.077,300.249 563,305.5C 568.516,316.64 566.683,326.474 557.5,335C 545.366,338.603 536.032,334.937 529.5,324C 525.948,320.781 522.115,317.948 518,315.5C 511.531,320.968 505.364,326.801 499.5,333C 478.926,340.774 469.426,333.607 471,311.5C 475.964,302.523 482.464,294.69 490.5,288C 483.968,281.802 477.801,275.302 472,268.5C 466.55,255.428 470.05,245.761 482.5,239.5 Z"/></g>
<g><path style="opacity:1" fill="#0c314c" d="M 339.5,243.5 C 346.596,243.107 353.263,244.607 359.5,248C 364.952,253.028 366.785,259.194 365,266.5C 364.517,270.467 363.184,274.134 361,277.5C 345.805,293.029 330.305,308.196 314.5,323C 306.807,326.289 299.14,326.289 291.5,323C 282.03,314.531 272.863,305.697 264,296.5C 256.566,279.701 261.733,269.034 279.5,264.5C 288.415,267.623 296.415,272.29 303.5,278.5C 315.106,266.376 327.106,254.709 339.5,243.5 Z"/></g>
<g><path style="opacity:1" fill="#fbfbfc" d="M 483.5,247.5 C 486.607,247.351 489.607,247.851 492.5,249C 500.4,257.569 508.9,265.403 518,272.5C 526.5,264.667 535,256.833 543.5,249C 554.427,246.927 559.26,251.427 558,262.5C 549.469,270.697 541.302,279.197 533.5,288C 541.333,295.833 549.167,303.667 557,311.5C 560.591,324.907 555.758,329.407 542.5,325C 534.933,316.763 526.767,309.263 518,302.5C 510.1,311.069 501.6,318.903 492.5,326C 487.141,328.327 482.641,327.161 479,322.5C 477.682,319.594 477.348,316.594 478,313.5C 486.011,304.322 494.511,295.656 503.5,287.5C 496.151,279.317 488.317,271.65 480,264.5C 475.861,257.598 477.027,251.931 483.5,247.5 Z"/></g>
<g><path style="opacity:1" fill="#fbfbfc" d="M 341.5,253.5 C 352.604,251.771 357.104,256.438 355,267.5C 339.167,283.333 323.333,299.167 307.5,315C 302.799,317.062 298.466,316.395 294.5,313C 286.667,305.167 278.833,297.333 271,289.5C 268.478,276.686 273.311,272.519 285.5,277C 290.698,282.533 296.198,287.7 302,292.5C 315.726,279.94 328.893,266.94 341.5,253.5 Z"/></g>
<g><path style="opacity:1" fill="#595959" d="M 252.5,448.5 C 253.818,451.258 254.485,454.424 254.5,458C 254.167,461.167 253.833,464.333 253.5,467.5C 252.504,461.202 252.17,454.868 252.5,448.5 Z"/></g>
<g><path style="opacity:1" fill="#595959" d="M 601.5,448.5 C 602.818,451.258 603.485,454.424 603.5,458C 603.167,461.167 602.833,464.333 602.5,467.5C 601.504,461.202 601.17,454.868 601.5,448.5 Z"/></g>
<g><path style="opacity:1" fill="#1d1d1d" d="M 223.5,449.5 C 225.337,449.639 225.67,450.306 224.5,451.5C 223.702,451.043 223.369,450.376 223.5,449.5 Z"/></g>
<g><path style="opacity:1" fill="#3a3a3a" d="M 258.5,449.5 C 260.337,449.639 260.67,450.306 259.5,451.5C 258.702,451.043 258.369,450.376 258.5,449.5 Z"/></g>
<g><path style="opacity:1" fill="#161616" d="M 418.5,449.5 C 420.369,451.635 421.036,454.302 420.5,457.5C 423.5,457.5 426.5,457.5 429.5,457.5C 429.187,454.753 429.52,452.086 430.5,449.5C 431.833,455.5 431.833,461.5 430.5,467.5C 429.52,464.914 429.187,462.247 429.5,459.5C 426.5,459.5 423.5,459.5 420.5,459.5C 420.813,462.247 420.48,464.914 419.5,467.5C 418.504,461.537 418.171,455.537 418.5,449.5 Z"/></g>
<g><path style="opacity:1" fill="#202020" d="M 435.5,449.5 C 437.337,449.639 437.67,450.306 436.5,451.5C 435.702,451.043 435.369,450.376 435.5,449.5 Z"/></g>
<g><path style="opacity:1" fill="#131313" d="M 216.5,450.5 C 217.434,451.568 217.768,452.901 217.5,454.5C 221.5,455.167 221.5,455.833 217.5,456.5C 217.5,459.5 217.5,462.5 217.5,465.5C 218.675,465.281 219.675,465.614 220.5,466.5C 218.994,467.747 217.494,467.747 216,466.5C 215.985,462.585 215.152,458.918 213.5,455.5C 214.994,454.095 215.994,452.429 216.5,450.5 Z"/></g>
<g><path style="opacity:1" fill="#212121" d="M 344.5,450.5 C 346.176,451.183 346.843,452.517 346.5,454.5C 350.5,455.167 350.5,455.833 346.5,456.5C 346.5,459.5 346.5,462.5 346.5,465.5C 347.675,465.281 348.675,465.614 349.5,466.5C 347.994,467.747 346.494,467.747 345,466.5C 344.985,462.585 344.152,458.918 342.5,455.5C 344.005,454.158 344.672,452.492 344.5,450.5 Z"/></g>
<g><path style="opacity:1" fill="#2d2d2d" d="M 524.5,451.5 C 525.404,452.209 525.737,453.209 525.5,454.5C 526.978,454.238 528.311,454.571 529.5,455.5C 528.675,456.386 527.675,456.719 526.5,456.5C 526.5,459.5 526.5,462.5 526.5,465.5C 527.675,465.281 528.675,465.614 529.5,466.5C 527.994,467.747 526.494,467.747 525,466.5C 524.502,463.183 524.335,459.85 524.5,456.5C 520.5,455.833 520.5,455.167 524.5,454.5C 524.5,453.5 524.5,452.5 524.5,451.5 Z"/></g>
<g><path style="opacity:1" fill="#1b1b1b" d="M 487.5,449.5 C 490.167,449.5 492.833,449.5 495.5,449.5C 495.719,450.675 495.386,451.675 494.5,452.5C 486.192,450.643 483.026,453.977 485,462.5C 487.574,465.027 490.74,466.194 494.5,466C 484.941,468.444 481.108,464.611 483,454.5C 484.193,452.503 485.693,450.836 487.5,449.5 Z"/></g>
<g><path style="opacity:1" fill="#303030" d="M 223.5,454.5 C 224.8,456.223 225.467,458.39 225.5,461C 225.167,463.167 224.833,465.333 224.5,467.5C 223.508,463.217 223.174,458.884 223.5,454.5 Z"/></g>
<g><path style="opacity:1" fill="#595959" d="M 258.5,454.5 C 259.8,456.223 260.467,458.39 260.5,461C 260.167,463.167 259.833,465.333 259.5,467.5C 258.508,463.217 258.174,458.884 258.5,454.5 Z"/></g>
<g><path style="opacity:1" fill="#1d1d1d" d="M 334.5,454.5 C 335.75,454.577 336.583,455.244 337,456.5C 338.241,454.579 339.741,454.246 341.5,455.5C 339.807,456.228 338.307,457.228 337,458.5C 336.821,461.553 336.321,464.553 335.5,467.5C 334.508,463.217 334.174,458.884 334.5,454.5 Z"/></g>
<g><path style="opacity:1" fill="#1d1d1d" d="M 384.5,454.5 C 385.75,454.577 386.583,455.244 387,456.5C 388.241,454.579 389.741,454.246 391.5,455.5C 389.807,456.228 388.307,457.228 387,458.5C 386.821,461.553 386.321,464.553 385.5,467.5C 384.508,463.217 384.174,458.884 384.5,454.5 Z"/></g>
<g><path style="opacity:1" fill="#1b1b1b" d="M 435.5,454.5 C 436.8,456.223 437.467,458.39 437.5,461C 437.167,463.167 436.833,465.333 436.5,467.5C 435.508,463.217 435.174,458.884 435.5,454.5 Z"/></g>
<g><path style="opacity:1" fill="#191919" d="M 498.5,454.5 C 500.25,457.355 501.083,460.689 501,464.5C 502.667,465.833 504.333,465.833 506,464.5C 506.176,461.118 506.676,457.785 507.5,454.5C 508.833,458.833 508.833,463.167 507.5,467.5C 505.89,466.448 504.223,466.448 502.5,467.5C 500.971,467.471 499.804,466.804 499,465.5C 498.501,461.848 498.335,458.182 498.5,454.5 Z"/></g>
<g><path style="opacity:1" fill="#1a1a1a" d="M 546.5,454.5 C 548.341,455.673 550.174,455.673 552,454.5C 553.473,454.903 554.806,455.57 556,456.5C 557.865,454.327 560.031,453.993 562.5,455.5C 563.66,459.459 563.827,463.459 563,467.5C 562.667,464.167 562.333,460.833 562,457.5C 560.333,456.167 558.667,456.167 557,457.5C 556,470.833 555,470.833 554,457.5C 552.612,456.446 551.112,456.28 549.5,457C 548.867,460.459 548.2,463.959 547.5,467.5C 546.508,463.217 546.174,458.884 546.5,454.5 Z"/></g>
<g><path style="opacity:1" fill="#1d1d1d" d="M 621.5,454.5 C 622.75,454.577 623.583,455.244 624,456.5C 625.241,454.579 626.741,454.246 628.5,455.5C 626.807,456.228 625.307,457.228 624,458.5C 623.821,461.553 623.321,464.553 622.5,467.5C 621.508,463.217 621.174,458.884 621.5,454.5 Z"/></g>
<g><path style="opacity:1" fill="#2b2b2b" d="M 200.5,454.5 C 201.75,454.577 202.583,455.244 203,456.5C 205.459,453.9 207.959,453.9 210.5,456.5C 211.426,460.094 211.759,463.76 211.5,467.5C 210.5,467.5 209.5,467.5 208.5,467.5C 208.5,463.833 208.5,460.167 208.5,456.5C 206.278,456.178 204.444,456.845 203,458.5C 202.821,461.553 202.321,464.553 201.5,467.5C 200.508,463.217 200.174,458.884 200.5,454.5 Z"/></g>
<g><path style="opacity:1" fill="#252525" d="M 323.5,454.5 C 329.129,453.487 331.462,455.821 330.5,461.5C 330.167,463.5 329.833,465.5 329.5,467.5C 327.328,467.324 324.995,467.157 322.5,467C 320.455,461.529 322.455,459.029 328.5,459.5C 328.5,458.5 328.5,457.5 328.5,456.5C 326.473,456.662 324.473,456.495 322.5,456C 323.056,455.617 323.389,455.117 323.5,454.5 Z"/></g>
<g><path style="opacity:1" fill="#2b2b2b" d="M 456.5,448.5 C 458.22,450.658 459.053,453.325 459,456.5C 461.459,453.9 463.959,453.9 466.5,456.5C 467.426,460.094 467.759,463.76 467.5,467.5C 466.5,467.5 465.5,467.5 464.5,467.5C 464.5,463.833 464.5,460.167 464.5,456.5C 462.278,456.178 460.444,456.845 459,458.5C 458.821,461.553 458.321,464.553 457.5,467.5C 456.504,461.202 456.17,454.868 456.5,448.5 Z"/></g>
<g><path style="opacity:1" fill="#242424" d="M 245.5,465.5 C 243.935,467.719 241.935,468.052 239.5,466.5C 238.369,464.926 238.202,463.259 239,461.5C 241.355,460.192 243.855,459.192 246.5,458.5C 244.685,456.306 242.518,455.972 240,457.5C 239.383,456.551 239.549,455.718 240.5,455C 243.347,454.056 245.847,454.556 248,456.5C 248.825,460.211 248.659,463.878 247.5,467.5C 246.818,466.757 246.151,466.091 245.5,465.5 Z"/></g>
<g><path style="opacity:1" fill="#242424" d="M 270.5,465.5 C 268.935,467.719 266.935,468.052 264.5,466.5C 263.369,464.926 263.202,463.259 264,461.5C 266.355,460.192 268.855,459.192 271.5,458.5C 269.685,456.306 267.518,455.972 265,457.5C 264.383,456.551 264.549,455.718 265.5,455C 268.347,454.056 270.847,454.556 273,456.5C 273.825,460.211 273.659,463.878 272.5,467.5C 271.818,466.757 271.151,466.091 270.5,465.5 Z"/></g>
<g><path style="opacity:1" fill="#222222" d="M 289.5,454.5 C 295.008,453.678 297.675,456.011 297.5,461.5C 294.428,461.183 291.428,461.516 288.5,462.5C 288.977,463.478 289.643,464.311 290.5,465C 292.5,465.333 294.5,465.667 296.5,466C 290.865,469.053 287.531,467.386 286.5,461C 286.84,458.489 287.84,456.322 289.5,454.5 Z"/></g>
<g><path style="opacity:1" fill="#f4f4f4" d="M 290.5,456.5 C 292.665,456.116 294.332,456.783 295.5,458.5C 293.235,459.647 290.902,459.814 288.5,459C 289.381,458.292 290.047,457.458 290.5,456.5 Z"/></g>
<g><path style="opacity:1" fill="#262626" d="M 631.5,454.5 C 633.604,454.201 635.604,454.534 637.5,455.5C 630.062,456.575 629.729,458.575 636.5,461.5C 637.893,463.674 637.56,465.507 635.5,467C 633.272,467.82 631.272,467.487 629.5,466C 631.473,465.505 633.473,465.338 635.5,465.5C 635.719,464.325 635.386,463.325 634.5,462.5C 629.474,461.082 628.474,458.415 631.5,454.5 Z"/></g>
<g><path style="opacity:1" fill="#1c1c1c" d="M 189.5,449.5 C 190.496,449.414 191.329,449.748 192,450.5C 193.975,456.096 196.142,461.596 198.5,467C 197.552,467.483 196.552,467.649 195.5,467.5C 195.843,463.866 194.177,462.199 190.5,462.5C 186.49,461.843 184.824,463.51 185.5,467.5C 184.448,467.649 183.448,467.483 182.5,467C 184.978,461.212 187.312,455.379 189.5,449.5 Z"/></g>
<g><path style="opacity:1" fill="#e8e8e8" d="M 189.5,453.5 C 190.376,453.369 191.043,453.702 191.5,454.5C 194.892,459.724 193.559,461.39 187.5,459.5C 188.372,457.55 189.039,455.55 189.5,453.5 Z"/></g>
<g><path style="opacity:1" fill="#232323" d="M 309.5,448.5 C 310.818,451.258 311.485,454.424 311.5,458C 311.167,461.167 310.833,464.333 310.5,467.5C 309.676,465.252 308.676,465.086 307.5,467C 301.242,467.702 298.742,464.868 300,458.5C 302.195,454.128 305.195,453.461 309,456.5C 309.497,453.854 309.664,451.187 309.5,448.5 Z"/></g>
<g><path style="opacity:1" fill="#f0f0f0" d="M 303.5,456.5 C 306.916,455.866 308.916,457.2 309.5,460.5C 308.643,465.671 306.143,466.671 302,463.5C 301.167,460.829 301.667,458.496 303.5,456.5 Z"/></g>
<g><path style="opacity:1" fill="#1b1b1b" d="M 372.5,454.5 C 381.286,454.447 383.619,458.281 379.5,466C 371.735,468.575 368.568,465.742 370,457.5C 371.045,456.627 371.878,455.627 372.5,454.5 Z"/></g>
<g><path style="opacity:1" fill="#f5f5f5" d="M 372.5,456.5 C 379.486,456.331 381.153,459.164 377.5,465C 375.559,465.743 373.726,465.576 372,464.5C 371.278,461.739 371.445,459.073 372.5,456.5 Z"/></g>
<g><path style="opacity:1" fill="#1c1c1c" d="M 588.5,454.5 C 597.369,454.517 599.703,458.35 595.5,466C 589.461,469.132 586.128,467.298 585.5,460.5C 585.628,458.045 586.628,456.045 588.5,454.5 Z"/></g>
<g><path style="opacity:1" fill="#f6f6f6" d="M 589.5,456.5 C 591.467,456.261 593.301,456.594 595,457.5C 597.011,465.17 594.678,467.17 588,463.5C 587.167,460.829 587.667,458.496 589.5,456.5 Z"/></g>
<g><path style="opacity:1" fill="#1b1b1b" d="M 609.5,454.5 C 618.286,454.447 620.619,458.281 616.5,466C 608.735,468.575 605.568,465.742 607,457.5C 608.045,456.627 608.878,455.627 609.5,454.5 Z"/></g>
<g><path style="opacity:1" fill="#f5f5f5" d="M 609.5,456.5 C 616.486,456.331 618.153,459.164 614.5,465C 612.559,465.743 610.726,465.576 609,464.5C 608.278,461.739 608.445,459.073 609.5,456.5 Z"/></g>
<g><path style="opacity:1" fill="#202020" d="M 534.5,454.5 C 542.845,454.691 545.178,458.524 541.5,466C 533.394,468.898 530.227,466.065 532,457.5C 533.045,456.627 533.878,455.627 534.5,454.5 Z"/></g>
<g><path style="opacity:1" fill="#f3f3f3" d="M 534.5,456.5 C 541.486,456.331 543.153,459.164 539.5,465C 537.559,465.743 535.726,465.576 534,464.5C 533.278,461.739 533.445,459.073 534.5,456.5 Z"/></g>
<g><path style="opacity:1" fill="#1f1f1f" d="M 577.5,454.5 C 579.5,454.5 581.5,454.5 583.5,454.5C 583.649,455.552 583.483,456.552 583,457.5C 577.367,455.46 575.034,457.46 576,463.5C 578.075,465.648 580.408,465.982 583,464.5C 583.456,466.713 582.456,467.713 580,467.5C 577.695,467.516 576.028,466.516 575,464.5C 573.861,460.579 574.695,457.246 577.5,454.5 Z"/></g>
<g><path style="opacity:1" fill="#151515" d="M 393.5,448.5 C 395.268,452.044 396.102,456.044 396,460.5C 397.484,456.983 399.984,455.149 403.5,455C 401.5,457 399.5,459 397.5,461C 399.5,463 401.5,465 403.5,467C 402.5,467.667 401.5,467.667 400.5,467C 399.12,465.075 397.62,463.241 396,461.5C 395.808,463.577 395.308,465.577 394.5,467.5C 393.504,461.202 393.17,454.868 393.5,448.5 Z"/></g>
<g><path style="opacity:1" fill="#636363" d="M 228.5,459.5 C 230.924,459.192 233.257,459.526 235.5,460.5C 234.333,460.833 233.167,461.167 232,461.5C 230.319,461.392 229.152,460.725 228.5,459.5 Z"/></g>
<g><path style="opacity:1" fill="#222222" d="M 278.5,454.5 C 285.167,455.167 285.167,455.833 278.5,456.5C 278.22,459.388 279.553,460.888 282.5,461C 285.326,463.522 284.993,465.522 281.5,467C 279.741,467.798 278.074,467.631 276.5,466.5C 284.102,465.338 284.269,463.338 277,460.5C 276.257,458.126 276.757,456.126 278.5,454.5 Z"/></g>
<g><path style="opacity:1" fill="#222222" d="M 514.5,454.5 C 521.167,455.167 521.167,455.833 514.5,456.5C 514.22,459.388 515.553,460.888 518.5,461C 521.326,463.522 520.993,465.522 517.5,467C 515.741,467.798 514.074,467.631 512.5,466.5C 520.102,465.338 520.269,463.338 513,460.5C 512.257,458.126 512.757,456.126 514.5,454.5 Z"/></g>
<g><path style="opacity:1" fill="#e7e7e7" d="M 245.5,465.5 C 243.833,465.5 242.167,465.5 240.5,465.5C 240.759,461.932 242.759,460.599 246.5,461.5C 246.567,462.959 246.234,464.292 245.5,465.5 Z"/></g>
<g><path style="opacity:1" fill="#e7e7e7" d="M 270.5,465.5 C 268.833,465.5 267.167,465.5 265.5,465.5C 265.759,461.932 267.759,460.599 271.5,461.5C 271.567,462.959 271.234,464.292 270.5,465.5 Z"/></g>
<g><path style="opacity:1" fill="#f4f4f4" d="M 323.5,461.5 C 325.167,461.5 326.833,461.5 328.5,461.5C 328.616,464.91 326.95,466.244 323.5,465.5C 323.5,464.167 323.5,462.833 323.5,461.5 Z"/></g>
<g><path style="opacity:1" fill="#1a1a1a" d="M 350.5,454.5 C 351.497,454.47 352.164,454.97 352.5,456C 353.256,458.856 354.089,461.689 355,464.5C 358.133,451.331 360.8,451.331 363,464.5C 363.884,461.065 365.051,457.732 366.5,454.5C 366.833,454.833 367.167,455.167 367.5,455.5C 365.871,459.351 364.871,463.351 364.5,467.5C 363.5,467.5 362.5,467.5 361.5,467.5C 359.843,454.187 358.177,454.187 356.5,467.5C 355.5,467.5 354.5,467.5 353.5,467.5C 353.118,463.022 352.118,458.689 350.5,454.5 Z"/></g>
<g><path style="opacity:1" fill="#202020" d="M 405.5,464.5 C 406.239,464.369 406.906,464.536 407.5,465C 404.813,472.413 404.147,472.246 405.5,464.5 Z"/></g>
<g><path style="opacity:1" fill="#202020" d="M 470.5,464.5 C 471.239,464.369 471.906,464.536 472.5,465C 469.813,472.413 469.147,472.246 470.5,464.5 Z"/></g>
<g><path style="opacity:1" fill="#1a1a1a" d="M 444.5,454.5 C 447.011,454.838 449.345,454.838 451.5,454.5C 452.663,459.802 452.829,465.136 452,470.5C 449.291,473.368 446.124,474.035 442.5,472.5C 444.766,471.686 447.1,471.186 449.5,471C 450.747,469.506 450.747,468.006 449.5,466.5C 446.22,468.283 443.72,467.617 442,464.5C 440.861,460.579 441.695,457.246 444.5,454.5 Z"/></g>
<g><path style="opacity:1" fill="#f5f5f5" d="M 444.5,456.5 C 446.467,456.261 448.301,456.594 450,457.5C 450.769,460.099 450.602,462.599 449.5,465C 447.559,465.743 445.726,465.576 444,464.5C 443.278,461.739 443.445,459.073 444.5,456.5 Z"/></g>
</svg>
